#!OML:ASF X:\für Bonn\!DataBase\2005_08_12_Daniel\c3d\Daniel.ASF
:FULLY-SPECIFIED
:DEGREES
78
root 2.39382 17.2481 13.5061 174.963 -226.528 546.815
lowerback 7.41765 -2.62129 -6.23415
upperback 1.66012 -4.03968 -6.10359
thorax -2.446 -1.94385 -2.46667
lowerneck 8.08333 -8.83414 -6.91126
upperneck 10.325 -12.6489 6.97172
head 2.98629 -6.42468 3.43464
rclavicle 3.84648e-014 2.38542e-014
rhumerus 21.5436 -9.12384 -47.1349
rradius 44.3537
rwrist 3.10557
rhand -24.3019 18.0529
rfingers 7.12502
rthumb 2.18576 -11.9157
lclavicle 3.84648e-014 2.38542e-014
lhumerus -22.5802 16.8582 78.5414
lradius 24.1771
lwrist -22.4002
lhand -11.006 -8.37822
lfingers 7.12502
lthumb 15.0147 21.0574
rfemur -9.65155 13.9773 0.141986
rtibia 22.519
rfoot -2.2005 -7.47342
rtoes -20.775
lfemur 9.94915 -21.5682 -26.0287
ltibia 29.4393
lfoot -23.1713 -26.1568
ltoes 0.70206
79
root 2.37772 17.2399 13.6529 175.012 -227.582 546.787
lowerback 7.31088 -2.7349 -6.19009
upperback 1.69963 -4.1712 -6.14468
thorax -2.35141 -2.01093 -2.52839
lowerneck 8.18789 -8.95383 -6.78382
upperneck 10.3132 -12.8031 6.97056
head 2.96682 -6.49792 3.41314
rclavicle 1.92821e-014 -3.02153e-014
rhumerus 22.4298 -9.66179 -46.3139
rradius 42.6247
rwrist 3.4915
rhand -24.0682 18.1269
rfingers 7.12502
rthumb 2.41145 -11.8392
lclavicle 1.92821e-014 -3.02153e-014
lhumerus -22.1448 18.9925 77.8181
lradius 22.942
lwrist -25.0049
lhand -10.7628 -8.29494
lfingers 7.12502
lthumb 15.249 21.123
rfemur -9.22756 13.1235 0.348107
rtibia 22.9684
rfoot -2.93248 -6.55061
rtoes -20.6349
lfemur 10.0478 -21.7975 -25.4305
ltibia 29.4298
lfoot -23.0433 -26.8264
ltoes 0.788024
80
root 2.36033 17.2325 13.7994 175.028 -228.606 546.701
lowerback 7.19611 -2.84216 -6.10083
upperback 1.73262 -4.29123 -6.18359
thorax -2.26277 -2.07256 -2.61443
lowerneck 8.31408 -9.07883 -6.67119
upperneck 10.3026 -12.966 6.97125
head 2.94593 -6.57648 3.39604
rclavicle 1.00386e-014 -1.74931e-014
rhumerus 23.1781 -10.1234 -45.4791
rradius 41.0368
rwrist 3.72175
rhand -23.7087 18.1136
rfingers 7.12502
rthumb 2.75866 -11.8483
lclavicle 1.00386e-014 -1.74931e-014
lhumerus -21.8272 21.3458 76.9892
lradius 21.8023
lwrist -27.7559
lhand -10.4805 -8.22011
lfingers 7.12502
lthumb 15.5209 21.177
rfemur -8.82884 12.2015 0.618201
rtibia 23.4535
rfoot -3.66793 -5.57003
rtoes -20.466
lfemur 10.0831 -21.9899 -24.7605
ltibia 29.4667
lfoot -22.8584 -27.4562
ltoes 0.908948
81
root 2.34176 17.2254 13.9453 175.018 -229.609 546.592
lowerback 7.08622 -2.94939 -6.02182
upperback 1.78067 -4.41106 -6.20737
thorax -2.1597 -2.13433 -2.67969
lowerneck 8.40235 -9.18831 -6.60817
upperneck 10.2891 -13.113 7.01606
head 2.93722 -6.64777 3.40152
rclavicle -2.31584e-014 -3.18055e-015
rhumerus 23.8686 -10.5149 -44.6494
rradius 39.5441
rwrist 3.79129
rhand -23.317 18.0278
rfingers 7.12502
rthumb 3.13696 -11.9289
lclavicle -2.31584e-014 -3.18055e-015
lhumerus -21.5968 23.7399 76.1292
lradius 20.7497
lwrist -30.447
lhand -10.2879 -8.02836
lfingers 7.12502
lthumb 15.7064 21.3542
rfemur -8.42031 11.3189 0.922718
rtibia 23.9375
rfoot -4.39883 -4.61783
rtoes -20.4972
lfemur 10.0954 -22.0622 -24.0526
ltibia 29.5406
lfoot -22.8311 -27.9384
ltoes 0.565044
82
root 2.32196 17.22 14.0912 174.967 -230.59 546.406
lowerback 6.96855 -3.06286 -5.92499
upperback 1.80559 -4.53983 -6.20638
thorax -2.07629 -2.2004 -2.72836
lowerneck 8.57381 -9.28854 -6.58886
upperneck 10.2431 -13.2528 7.07329
head 2.90673 -6.71886 3.42454
rclavicle 1.90833e-014 2.38542e-014
rhumerus 24.4985 -10.8806 -43.8771
rradius 38.1101
rwrist 3.84486
rhand -22.8705 17.9236
rfingers 7.12502
rthumb 3.5682 -12.0263
lclavicle 1.90833e-014 2.38542e-014
lhumerus -21.5365 26.4089 75.1418
lradius 19.7524
lwrist -33.2632
lhand -10.2342 -7.86371
lfingers 7.12502
lthumb 15.7581 21.5148
rfemur -8.00722 10.5219 1.30479
rtibia 24.3808
rfoot -5.16502 -3.79716
rtoes -20.6361
lfemur 10.0331 -22.0806 -23.2582
ltibia 29.6487
lfoot -22.7547 -28.358
ltoes 0.266795
83
root 2.30032 17.2181 14.2375 174.809 -231.551 546.085
lowerback 6.86664 -3.17705 -5.7631
upperback 1.82343 -4.66822 -6.17466
thorax -2.01221 -2.26662 -2.78011
lowerneck 8.75339 -9.37511 -6.65278
upperneck 10.2016 -13.3849 7.1877
head 2.88803 -6.7887 3.48271
rclavicle 8.10048e-014 -4.6118e-014
rhumerus 25.0888 -11.2261 -43.1649
rradius 36.7505
rwrist 3.82652
rhand -22.3558 17.701
rfingers 7.12502
rthumb 4.06518 -12.24
lclavicle 8.10048e-014 -4.6118e-014
lhumerus -21.6423 29.2727 74.0506
lradius 18.8428
lwrist -36.1264
lhand -10.3001 -7.6472
lfingers 7.12502
lthumb 15.6946 21.7363
rfemur -7.55606 9.9413 1.81269
rtibia 24.7489
rfoot -5.96673 -3.2104
rtoes -20.7748
lfemur 9.91022 -22.0948 -22.3471
ltibia 29.7875
lfoot -22.5226 -28.7657
ltoes 0.246446
84
root 2.27825 17.2196 14.3849 174.559 -232.475 545.653
lowerback 6.74197 -3.28474 -5.55642
upperback 1.85441 -4.78243 -6.12711
thorax -1.92456 -2.32666 -2.84333
lowerneck 8.95039 -9.47107 -6.67449
upperneck 10.3026 -13.5623 7.5422
head 2.61798 -6.85617 3.28482
rclavicle 7.77248e-014 4.77083e-015
rhumerus 25.6276 -11.6103 -42.5359
rradius 35.456
rwrist 3.8523
rhand -21.8481 17.4024
rfingers 7.12502
rthumb 4.55549 -12.5286
lclavicle 7.77248e-014 4.77083e-015
lhumerus -21.8485 32.234 72.8649
lradius 17.9519
lwrist -38.9265
lhand -10.552 -7.35299
lfingers 7.12502
lthumb 15.4521 22.0494
rfemur -7.05814 9.60435 2.42466
rtibia 25.0126
rfoot -6.77627 -2.84034
rtoes -20.7245
lfemur 9.74391 -22.0601 -21.3553
ltibia 29.9601
lfoot -22.2394 -29.0598
ltoes 0.33659
85
root 2.25495 17.2226 14.531 174.255 -233.371 545.14
lowerback 6.60915 -3.38925 -5.312
upperback 1.88047 -4.89086 -6.06733
thorax -1.8402 -2.38399 -2.91585
lowerneck 9.13549 -9.55582 -6.70341
upperneck 10.2044 -13.6859 7.64375
head 2.57775 -6.92165 3.32862
rclavicle 6.07287e-014 4.77083e-014
rhumerus 26.1047 -11.9978 -41.9678
rradius 34.2294
rwrist 3.93133
rhand -21.3827 16.9899
rfingers 7.12502
rthumb 5.00487 -12.931
lclavicle 6.07287e-014 4.77083e-014
lhumerus -22.2551 35.3398 71.538
lradius 17.1544
lwrist -41.7432
lhand -10.9621 -7.06901
lfingers 7.12502
lthumb 15.057 22.3634
rfemur -6.54195 9.47338 3.10278
rtibia 25.1672
rfoot -7.56215 -2.61725
rtoes -20.4137
lfemur 9.51584 -21.9646 -20.2946
ltibia 30.1744
lfoot -21.9442 -29.2086
ltoes 0.239021
86
root 2.23085 17.2265 14.6757 173.898 -234.235 544.564
lowerback 6.49535 -3.49111 -5.03622
upperback 1.89691 -4.9977 -5.99389
thorax -1.77863 -2.44034 -2.99048
lowerneck 9.2822 -9.63425 -6.79802
upperneck 10.1558 -13.8093 7.77075
head 2.56456 -6.98768 3.38622
rclavicle -1.02772e-013 4.77083e-015
rhumerus 26.513 -12.3727 -41.43
rradius 33.0974
rwrist 4.04514
rhand -20.9497 16.4262
rfingers 7.12502
rthumb 5.42296 -13.4844
lclavicle -1.02772e-013 4.77083e-015
lhumerus -22.8798 38.3847 70.1128
lradius 16.4682
lwrist -44.3173
lhand -11.5807 -6.73308
lfingers 7.12502
lthumb 14.461 22.743
rfemur -6.01178 9.55385 3.82695
rtibia 25.2259
rfoot -8.33136 -2.54619
rtoes -19.7286
lfemur 9.25512 -21.7996 -19.2014
ltibia 30.4382
lfoot -21.7575 -29.1667
ltoes -0.0738478
87
root 2.20643 17.2321 14.8173 173.523 -235.081 543.944
lowerback 6.39351 -3.59396 -4.69856
upperback 1.89023 -5.10664 -5.93048
thorax -1.75493 -2.49746 -3.1082
lowerneck 9.40988 -9.71136 -6.91369
upperneck 10.1247 -13.9329 7.89333
head 2.56108 -7.05413 3.44405
rclavicle -1.75726e-013 -2.22639e-014
rhumerus 26.8259 -12.8226 -41.037
rradius 32.0342
rwrist 4.36098
rhand -20.6079 15.8804
rfingers 7.12502
rthumb 5.7529 -14.0215
lclavicle -1.75726e-013 -2.22639e-014
lhumerus -23.7637 41.3836 68.527
lradius 15.9308
lwrist -46.7043
lhand -12.2671 -6.33565
lfingers 7.12502
lthumb 13.7996 23.1867
rfemur -5.49617 9.59307 4.56863
rtibia 25.2024
rfoot -9.01125 -2.43186
rtoes -19.0951
lfemur 8.92031 -21.5315 -18.0769
ltibia 30.7603
lfoot -21.703 -28.9614
ltoes -0.802552
88
root 2.18233 17.2414 14.9561 173.179 -235.899 543.348
lowerback 6.29308 -3.69076 -4.35344
upperback 1.87819 -5.20866 -5.87643
thorax -1.73992 -2.55099 -3.24035
lowerneck 9.48396 -9.7803 -7.09427
upperneck 10.1184 -14.0543 8.06318
head 2.58092 -7.11975 3.52155
rclavicle -5.52621e-014 4.77083e-015
rhumerus 27.0588 -13.3233 -40.7299
rradius 31.0935
rwrist 4.75317
rhand -20.3015 15.2574
rfingers 7.12502
rthumb 6.04875 -14.6363
lclavicle -5.52621e-014 4.77083e-015
lhumerus -24.8619 44.2364 66.8307
lradius 15.501
lwrist -48.8363
lhand -13.0279 -6.01354
lfingers 7.12502
lthumb 13.0663 23.5572
rfemur -4.98033 9.58532 5.29491
rtibia 25.1007
rfoot -9.6082 -2.32119
rtoes -18.5444
lfemur 8.52139 -21.1657 -16.995
ltibia 31.1439
lfoot -21.7342 -28.5636
ltoes -2.0253
89
root 2.15847 17.2532 15.0908 172.86 -236.696 542.789
lowerback 6.22095 -3.78383 -3.99596
upperback 1.85583 -5.30902 -5.84693
thorax -1.75576 -2.6033 -3.40296
lowerneck 9.55265 -9.84644 -7.28804
upperneck 10.1157 -14.1748 8.24936
head 2.60495 -7.18506 3.60533
rclavicle -6.04305e-014 3.81667e-014
rhumerus 27.1803 -13.7513 -40.3781
rradius 30.2686
rwrist 5.05011
rhand -20.0698 14.6311
rfingers 7.12502
rthumb 6.27239 -15.2561
lclavicle -6.04305e-014 3.81667e-014
lhumerus -26.0756 46.4487 65.1662
lradius 15.23
lwrist -50.2173
lhand -13.8677 -5.72486
lfingers 7.12502
lthumb 12.2567 23.896
rfemur -4.47958 9.49774 5.98675
rtibia 24.9491
rfoot -10.0969 -2.1949
rtoes -18.0627
lfemur 8.07162 -20.7353 -15.9719
ltibia 31.5745
lfoot -21.6464 -28.023
ltoes -3.13943
90
root 2.13515 17.2682 15.2206 172.618 -237.477 542.299
lowerback 6.15517 -3.88885 -3.64361
upperback 1.82208 -5.42767 -5.82723
thorax -1.78919 -2.66473 -3.57082
lowerneck 9.52362 -9.89827 -7.55351
upperneck 10.1766 -14.2825 8.43931
head 2.66783 -7.24361 3.6935
rclavicle 5.42682e-014 2.06736e-014
rhumerus 27.296 -14.2169 -40.1315
rradius 29.5375
rwrist 5.4538
rhand -19.8729 14.0518
rfingers 7.12502
rthumb 6.46254 -15.8296
lclavicle 5.42682e-014 2.06736e-014
lhumerus -27.3798 48.2241 63.5256
lradius 15.0808
lwrist -51.0101
lhand -14.5994 -5.47932
lfingers 7.12502
lthumb 11.5511 24.1824
rfemur -4.0082 9.42236 6.61579
rtibia 24.7467
rfoot -10.5743 -2.13687
rtoes -17.5811
lfemur 7.55225 -20.255 -15.0333
ltibia 32.043
lfoot -21.4075 -27.3434
ltoes -4.06189
91
root 2.11278 17.2839 15.3474 172.486 -238.241 541.936
lowerback 6.10723 -3.9731 -3.33874
upperback 1.76879 -5.52431 -5.83024
thorax -1.85085 -2.71473 -3.7359
lowerneck 9.53545 -9.96016 -7.79146
upperneck 10.194 -14.3992 8.60801
head 2.70936 -7.30745 3.77442
rclavicle -3.926e-014 6.52014e-014
rhumerus 27.2949 -14.6812 -39.8801
rradius 28.8916
rwrist 5.87185
rhand -19.7229 13.5615
rfingers 7.12502
rthumb 6.6073 -16.3154
lclavicle -3.926e-014 6.52014e-014
lhumerus -28.6776 49.5026 61.9916
lradius 14.9736
lwrist -51.2684
lhand -15.2881 -5.31464
lfingers 7.12502
lthumb 10.8869 24.3831
rfemur -3.55586 9.42174 7.16651
rtibia 24.5
rfoot -11.0372 -2.19412
rtoes -16.9228
lfemur 7.02393 -19.7715 -14.2231
ltibia 32.5341
lfoot -21.0891 -26.4943
ltoes -4.94537
92
root 2.09086 17.3002 15.4719 172.408 -238.996 541.625
lowerback 6.04219 -4.06584 -3.05921
upperback 1.71518 -5.63278 -5.84284
thorax -1.90336 -2.77082 -3.89732
lowerneck 9.54866 -10.0186 -8.00604
upperneck 10.2222 -14.509 8.76216
head 2.75111 -7.3671 3.84756
rclavicle -1.14003e-013 4.77083e-015
rhumerus 27.2684 -15.1079 -39.6411
rradius 28.326
rwrist 6.20557
rhand -19.5508 13.2363
rfingers 7.12502
rthumb 6.77343 -16.6354
lclavicle -1.14003e-013 4.77083e-015
lhumerus -30.0748 50.6577 60.3888
lradius 14.9281
lwrist -51.4253
lhand -15.8195 -5.2347
lfingers 7.12502
lthumb 10.3742 24.4894
rfemur -3.10587 9.53618 7.69716
rtibia 24.2251
rfoot -11.5256 -2.36645
rtoes -16.0567
lfemur 6.47728 -19.2657 -13.4739
ltibia 33.0351
lfoot -20.7771 -25.539
ltoes -5.99294
